<svg xmlns="http://www.w3.org/2000/svg" viewBox="0 0 200 200" fill="none">
  <defs>
    <linearGradient id="bg" x1="0" y1="0" x2="200" y2="200" gradientUnits="userSpaceOnUse">
      <stop offset="0%" stop-color="#07090e" />
      <stop offset="100%" stop-color="#020305" />
    </linearGradient>
    <linearGradient id="valtics-left-wing" x1="36" y1="48" x2="105" y2="155" gradientUnits="userSpaceOnUse">
      <stop offset="0%" stop-color="#C084FC" />
      <stop offset="25%" stop-color="#A855F7" />
      <stop offset="60%" stop-color="#8B5CF6" />
      <stop offset="88%" stop-color="#6D28D9" />
      <stop offset="100%" stop-color="#4C1D95" />
    </linearGradient>
    <linearGradient id="valtics-fold-shadow" x1="90" y1="120" x2="114" y2="156" gradientUnits="userSpaceOnUse">
      <stop offset="0%" stop-color="#130424" stop-opacity="0.98" />
      <stop offset="60%" stop-color="#2E0A4E" stop-opacity="0.8" />
      <stop offset="100%" stop-color="#581C87" stop-opacity="0.3" />
    </linearGradient>
    <linearGradient id="valtics-ray-1" x1="92" y1="152" x2="142" y2="52" gradientUnits="userSpaceOnUse">
      <stop offset="0%" stop-color="#6D28D9" />
      <stop offset="25%" stop-color="#9333EA" />
      <stop offset="55%" stop-color="#D946EF" />
      <stop offset="78%" stop-color="#F43F5E" />
      <stop offset="100%" stop-color="#FB923C" />
    </linearGradient>
    <linearGradient id="valtics-ray-2" x1="108" y1="142" x2="162" y2="48" gradientUnits="userSpaceOnUse">
      <stop offset="0%" stop-color="#9F1239" />
      <stop offset="28%" stop-color="#E11D48" />
      <stop offset="62%" stop-color="#F97316" />
      <stop offset="90%" stop-color="#F59E0B" />
      <stop offset="100%" stop-color="#FBBF24" />
    </linearGradient>
    <linearGradient id="valtics-ray-3" x1="124" y1="128" x2="178" y2="60" gradientUnits="userSpaceOnUse">
      <stop offset="0%" stop-color="#C2410C" />
      <stop offset="35%" stop-color="#EA580C" />
      <stop offset="70%" stop-color="#F59E0B" />
      <stop offset="100%" stop-color="#FDE047" />
    </linearGradient>
  </defs>

  <!-- Dark container background with subtle rounding -->
  <rect width="200" height="200" rx="36" fill="url(#bg)" />

  <!-- 1. Left descending sweeping ribbon arm -->
  <path
    d="M32 48 C 45 48, 62 50, 68 66 L 102 142 C 104 148, 100 156, 92 158 C 82 160, 72 153, 67 141 L 34 70 C 31 63, 28 53, 32 48 Z"
    fill="url(#valtics-left-wing)"
  />

  <!-- 2. Ribbon bottom loop wrap / fold shadow -->
  <path
    d="M67 141 C 74 156, 92 161, 107 150 C 117 142, 120 128, 112 116 L 98 92 C 96 89, 91 89, 89 94 L 80 114 C 73 126, 70 134, 67 141 Z"
    fill="url(#valtics-fold-shadow)"
  />

  <!-- 3. Ray 1: Inner Ascending Wing -->
  <path
    d="M96 150 L 138 60 C 142 52, 152 50, 158 56 C 163 61, 163 70, 157 78 L 114 162 C 109 168, 98 166, 94 158 C 93 155, 94 152, 96 150 Z"
    fill="url(#valtics-ray-1)"
  />

  <!-- 4. Ray 2: Middle Ascending Wing -->
  <path
    d="M112 136 L 154 54 C 158 46, 168 44, 174 50 C 180 55, 179 65, 174 72 L 132 154 C 127 160, 118 161, 113 154 C 110 149, 109 142, 112 136 Z"
    fill="url(#valtics-ray-2)"
  />

  <!-- 5. Ray 3: Outer Ascending Wing -->
  <path
    d="M130 118 L 166 66 C 170 60, 178 58, 184 64 C 189 69, 189 77, 184 83 L 150 142 C 146 148, 137 148, 133 142 C 129 135, 128 123, 130 118 Z"
    fill="url(#valtics-ray-3)"
  />
</svg>
